<svg xmlns="http://www.w3.org/2000/svg" width="17" height="18" viewBox="0 0 17 18" fill="none">
  <g clip-path="url(#clip0_1_9298)">
    <path d="M8.49998 7.3C9.94498 7.3 11.101 6.1525 11.101 4.75C11.101 3.3475 9.94498 2.2 8.49998 2.2C7.05498 2.2 5.89898 3.3475 5.89898 4.75C5.89898 6.1525 7.05498 7.3 8.49998 7.3ZM8.49998 9C6.11998 9 4.19898 7.096 4.19898 4.75C4.19898 2.404 6.11998 0.5 8.49998 0.5C10.88 0.5 12.801 2.404 12.801 4.75C12.801 7.096 10.88 9 8.49998 9ZM2.54998 15.8H14.45V14.6695C14.45 13.182 12.4865 11.6435 8.49998 11.6435C4.51348 11.6435 2.54998 13.182 2.54998 14.6695V15.8ZM8.49998 9.9435C14.161 9.9435 16.15 12.774 16.15 14.6695V17.5H0.849976V14.6695C0.849976 12.774 2.83898 9.9435 8.49998 9.9435Z" fill="black"/>
  </g>
  <defs>
    <clipPath id="clip0_1_9298">
      <rect width="17" height="17" fill="white" transform="translate(0 0.5)"/>
    </clipPath>
  </defs>
</svg>