<svg xmlns="http://www.w3.org/2000/svg" width="21" height="20" viewBox="0 0 21 20" fill="none">
  <g clip-path="url(#clip0_1_9428)">
    <path fill-rule="evenodd" clip-rule="evenodd" d="M3 19.375V2.5C3 1.83696 3.26339 1.20107 3.73223 0.732233C4.20107 0.263392 4.83696 0 5.5 0L15.5 0C16.163 0 16.7989 0.263392 17.2678 0.732233C17.7366 1.20107 18 1.83696 18 2.5V19.375C18.0001 19.4835 17.9719 19.5902 17.9182 19.6845C17.8645 19.7789 17.7872 19.8576 17.6939 19.913C17.6005 19.9684 17.4944 19.9985 17.3859 20.0004C17.2774 20.0023 17.1702 19.9758 17.075 19.9237L10.5 16.3363L3.925 19.9237C3.82979 19.9758 3.72265 20.0023 3.61413 20.0004C3.50561 19.9985 3.39946 19.9684 3.30611 19.913C3.21277 19.8576 3.13546 19.7789 3.08178 19.6845C3.02811 19.5902 2.99992 19.4835 3 19.375ZM14.0675 7.3175C14.1849 7.20014 14.2508 7.04097 14.2508 6.875C14.2508 6.70903 14.1849 6.54986 14.0675 6.4325C13.9501 6.31514 13.791 6.24921 13.625 6.24921C13.459 6.24921 13.2999 6.31514 13.1825 6.4325L9.875 9.74125L8.4425 8.3075C8.38439 8.24939 8.3154 8.20329 8.23948 8.17185C8.16356 8.1404 8.08218 8.12421 8 8.12421C7.91782 8.12421 7.83644 8.1404 7.76052 8.17185C7.6846 8.20329 7.61561 8.24939 7.5575 8.3075C7.49939 8.36561 7.45329 8.4346 7.42185 8.51052C7.3904 8.58644 7.37421 8.66782 7.37421 8.75C7.37421 8.83218 7.3904 8.91356 7.42185 8.98948C7.45329 9.0654 7.49939 9.13439 7.5575 9.1925L9.4325 11.0675C9.49056 11.1257 9.55953 11.1719 9.63546 11.2034C9.71139 11.2349 9.79279 11.2511 9.875 11.2511C9.95721 11.2511 10.0386 11.2349 10.1145 11.2034C10.1905 11.1719 10.2594 11.1257 10.3175 11.0675L14.0675 7.3175Z" fill="#A3A3A3"/>
  </g>
  <defs>
    <clipPath id="clip0_1_9428">
      <rect width="20" height="20" fill="white" transform="translate(0.5)"/>
    </clipPath>
  </defs>
</svg>