<svg width="35" height="35" viewBox="0 0 35 35" fill="none" xmlns="http://www.w3.org/2000/svg">
<g id="mdi:car-hatchback">
<path id="Vector" d="M23.3333 8.75H8.74992L1.45825 17.5V21.875H4.37492C4.37492 23.0353 4.83585 24.1481 5.65633 24.9686C6.4768 25.7891 7.5896 26.25 8.74992 26.25C9.91024 26.25 11.023 25.7891 11.8435 24.9686C12.664 24.1481 13.1249 23.0353 13.1249 21.875H21.8749C21.8749 23.0353 22.3359 24.1481 23.1563 24.9686C23.9768 25.7891 25.0896 26.25 26.2499 26.25C27.4102 26.25 28.523 25.7891 29.3435 24.9686C30.164 24.1481 30.6249 23.0353 30.6249 21.875H33.5416V17.5C33.5416 15.8813 32.2437 14.5833 30.6249 14.5833H27.7083L23.3333 8.75ZM9.47908 10.9375H15.3124V14.5833H6.56242L9.47908 10.9375ZM17.4999 10.9375H22.6041L25.4624 14.5833H17.4999V10.9375ZM8.74992 19.6875C9.33008 19.6875 9.88648 19.918 10.2967 20.3282C10.707 20.7384 10.9374 21.2948 10.9374 21.875C10.9374 22.4552 10.707 23.0116 10.2967 23.4218C9.88648 23.832 9.33008 24.0625 8.74992 24.0625C8.16976 24.0625 7.61336 23.832 7.20312 23.4218C6.79289 23.0116 6.56242 22.4552 6.56242 21.875C6.56242 21.2948 6.79289 20.7384 7.20312 20.3282C7.61336 19.918 8.16976 19.6875 8.74992 19.6875ZM26.2499 19.6875C26.8301 19.6875 27.3865 19.918 27.7967 20.3282C28.2069 20.7384 28.4374 21.2948 28.4374 21.875C28.4374 22.4552 28.2069 23.0116 27.7967 23.4218C27.3865 23.832 26.8301 24.0625 26.2499 24.0625C25.6698 24.0625 25.1134 23.832 24.7031 23.4218C24.2929 23.0116 24.0624 22.4552 24.0624 21.875C24.0624 21.2948 24.2929 20.7384 24.7031 20.3282C25.1134 19.918 25.6698 19.6875 26.2499 19.6875Z" fill="black"/>
</g>
</svg>
