<svg width="26" height="26" viewBox="0 0 26 26" fill="none" xmlns="http://www.w3.org/2000/svg">
<path d="M6.87917 16.6292L4.60417 14.3C5.66944 13.2347 6.91997 12.3908 8.35575 11.7682C9.79081 11.145 11.3389 10.8333 13 10.8333C14.6611 10.8333 16.2096 11.1493 17.6453 11.7812C19.0804 12.4132 20.3306 13.2708 21.3958 14.3542L19.1208 16.6292C18.3264 15.8347 17.4056 15.2118 16.3583 14.7604C15.3111 14.309 14.1917 14.0833 13 14.0833C11.8083 14.0833 10.6889 14.309 9.64167 14.7604C8.59444 15.2118 7.67361 15.8347 6.87917 16.6292ZM2.275 12.025L0 9.74999C1.66111 8.05277 3.60208 6.72569 5.82292 5.76874C8.04375 4.8118 10.4361 4.33333 13 4.33333C15.5639 4.33333 17.9563 4.8118 20.1771 5.76874C22.3979 6.72569 24.3389 8.05277 26 9.74999L23.725 12.025C22.3347 10.6347 20.7234 9.54669 18.8912 8.76091C17.0582 7.97586 15.0944 7.58333 13 7.58333C10.9056 7.58333 8.94183 7.97586 7.10883 8.76091C5.27656 9.54669 3.66528 10.6347 2.275 12.025ZM13 22.75L16.8188 18.9042C16.3313 18.4167 15.7625 18.0328 15.1125 17.7526C14.4625 17.4731 13.7583 17.3333 13 17.3333C12.2417 17.3333 11.5375 17.4731 10.8875 17.7526C10.2375 18.0328 9.66875 18.4167 9.18125 18.9042L13 22.75Z" fill="black"/>
</svg>
