<svg width="106" height="100" viewBox="0 0 106 100" fill="none" xmlns="http://www.w3.org/2000/svg">
<g id="Icons8_Jelly_monster 1" clip-path="url(#clip0_1_10459)">
<path id="Vector" d="M45.2995 22.579C46.2801 22.3744 47.2003 21.9476 47.9891 21.3318C48.7777 20.7161 49.414 19.9277 49.8487 19.0277C50.8686 16.9523 50.5129 14.9496 49.6879 12.8772C49.1519 11.7947 48.8425 10.6148 48.7784 9.40932C48.8348 8.32591 49.2632 7.29477 49.9915 6.48883C50.6419 5.67814 51.5505 5.11308 52.5667 4.88705C53.5829 4.66101 54.6459 4.78756 55.5804 5.24575C56.5633 5.77751 57.3414 6.61958 57.7926 7.63988C58.2439 8.66018 58.3429 9.80099 58.0736 10.8833H59.0248C58.5968 9.41354 58.5835 7.85461 58.9863 6.37779C59.1692 5.75308 59.5748 5.21651 60.1267 4.86893C60.6786 4.52132 61.3388 4.38661 61.9832 4.49009C65.057 5.15143 65.2678 8.85118 65.3112 11.3599C65.32 11.8935 66.1724 12.0537 66.2789 11.4906C66.6288 9.64025 67.0507 7.37519 68.9261 6.45248C70.4802 5.68895 71.8303 6.65786 72.474 8.06503C73.0967 9.49862 73.3273 11.0712 73.1421 12.6226C73.1347 13.0431 73.0103 13.4532 72.7831 13.8074C72.556 14.1617 72.2347 14.4461 71.855 14.6293C71.5689 14.7699 71.2395 14.7952 70.935 14.6998C70.6307 14.6045 70.3749 14.3958 70.2209 14.1173L70.2713 14.4956C70.5068 12.9882 72.538 12.6472 73.6723 13.3754C75.3131 14.4268 75.3082 16.8923 74.9257 18.5619C74.1089 22.1349 71.1316 25.4937 67.2891 25.6803C66.6575 25.7118 66.6544 26.6944 67.2891 26.6631C70.8912 26.4882 73.8664 23.8889 75.2589 20.6776C75.999 19.0758 76.2588 17.2947 76.0069 15.549C75.924 14.7538 75.6043 14.0014 75.0893 13.3885C74.5742 12.7757 73.8871 12.3303 73.1165 12.1097C72.4707 11.9471 71.7907 11.983 71.1656 12.2125C70.5406 12.4421 69.9996 12.8546 69.6138 13.396C69.4086 13.6602 69.3117 13.9924 69.3431 14.3251C69.3748 14.6579 69.5321 14.9662 69.7834 15.1874C70.0469 15.4067 70.3563 15.5641 70.689 15.648C71.0216 15.7318 71.369 15.74 71.7052 15.6719C73.547 15.3702 74.1602 13.5031 74.169 11.8591C74.2324 10.2006 73.8543 8.55484 73.0732 7.08925C72.6687 6.307 71.9791 5.70904 71.1463 5.41839C70.3132 5.12777 69.4002 5.16656 68.5948 5.52679C66.3618 6.54582 65.7428 9.03886 65.3289 11.2263L66.2966 11.357C66.4084 9.50264 66.0704 7.64874 65.3112 5.95229C64.9615 5.28804 64.458 4.71635 63.843 4.28438C63.2277 3.85243 62.5184 3.57264 61.7733 3.46811C61.0264 3.42201 60.2835 3.60874 59.6477 4.00245C59.0122 4.39614 58.515 4.9773 58.2255 5.66535C57.4026 7.40076 57.7327 9.33169 58.0726 11.1447C58.1712 11.636 58.8967 11.584 59.0236 11.1447C60.2241 6.98115 55.9883 2.49723 51.7576 4.09603C50.7465 4.47433 49.8529 5.1109 49.1661 5.94201C48.4795 6.77313 48.0238 7.76955 47.8452 8.8315C47.4705 11.4739 49.4978 13.6014 49.5372 16.1701C49.5263 17.4563 49.0736 18.6999 48.2547 19.6936C47.4356 20.6873 46.2997 21.371 45.0363 21.6308C44.4136 21.7487 44.6777 22.696 45.2986 22.579H45.2995Z" fill="#2EB196"/>
<path id="Vector_2" d="M83.2675 44.6742C83.8206 54.7858 78.9401 65.2021 67.9362 67.3738C63.254 68.2984 57.9757 66.8441 53.529 68.78C45.4537 72.2939 47.2808 83.1083 38.833 86.2499C30.5608 89.3267 20.3056 87.4851 15.4361 79.9176C9.44822 70.6216 8.47157 58.1348 11.5838 47.683C15.1888 35.5638 24.212 27.555 35.5179 22.6073C44.964 18.4742 56.0399 17.41 65.63 21.2021C71.0353 23.268 75.7012 26.8921 79.0329 31.6125C81.599 35.5065 83.062 40.0192 83.2675 44.6742Z" fill="#2EB196"/>
<path id="Vector_3" d="M82.7748 44.6735C83.104 51.0452 81.3183 57.8413 76.6133 62.3863C74.1983 64.6863 71.1718 66.2466 67.8935 66.8819C63.7348 67.7192 59.4231 66.6923 55.2791 67.6837C52.3297 68.4151 49.7892 70.2782 48.2102 72.8673C46.718 75.1963 45.8241 77.8366 44.5125 80.261C43.2661 82.8494 41.0734 84.8642 38.3845 85.8916C35.1656 87.0343 31.7259 87.4225 28.3325 87.0257C25.0073 86.6686 21.8472 85.3972 19.2046 83.3533C16.3151 81.0431 14.4584 77.699 13.0945 74.3197C10.1968 66.8946 9.55554 58.7833 11.2506 50.9972C12.7153 43.9183 16.2631 37.4357 21.4407 32.3775C26.8019 27.2805 33.2774 23.4953 40.3566 21.3205C48.4909 18.7783 57.4934 18.5111 65.4989 21.6753C73.0538 24.6617 79.4003 30.6176 81.7183 38.5074C82.3035 40.5162 82.6578 42.5849 82.7748 44.6735C82.8111 45.3016 83.7968 45.3065 83.7602 44.6735C83.5592 40.3496 82.3123 36.1385 80.1257 32.399C77.9833 28.9494 75.1032 26.0144 71.6907 23.8037C64.465 19.0211 55.5915 17.5982 47.0924 18.7921C39.1009 20.0038 31.5353 23.1729 25.0733 28.0155C19.21 32.2754 14.6847 38.1125 12.0272 44.8436C9.17154 52.4545 8.57922 60.7253 10.3213 68.6635C11.1629 72.6155 12.6783 76.3944 14.8014 79.8355C16.6291 82.7635 19.3051 85.0696 22.4755 86.4487C25.6743 87.813 29.1586 88.3782 32.6263 88.0958C35.837 87.8519 39.3937 87.0865 41.962 85.0445C46.5712 81.3802 46.8235 74.703 51.1686 70.8489C54.2955 68.0758 58.5304 68.1673 62.4654 68.2055C64.5807 68.29 66.6987 68.1185 68.7728 67.6946C70.4737 67.2984 72.1107 66.6668 73.6362 65.8176C79.5216 62.5227 82.7708 56.1707 83.5897 49.6617C83.7942 48.0072 83.8522 46.3383 83.7633 44.6735C83.7278 44.0466 82.7422 44.0399 82.7748 44.6735Z" fill="#2EB196"/>
<path id="Vector_4" d="M26.6093 83.9698C27.1316 89.0935 27.1878 94.2436 27.2372 99.3889C27.2381 99.4963 27.2737 99.6002 27.339 99.6856C27.4042 99.771 27.4953 99.8332 27.5987 99.8626C28.3041 100.005 29.0331 99.9826 29.7285 99.7967C29.8545 99.7622 29.9617 99.6791 30.0265 99.5657C30.091 99.4524 30.108 99.3181 30.0733 99.1923C30.0388 99.0666 29.9554 98.9596 29.8417 98.8951C29.728 98.8306 29.5934 98.8139 29.4674 98.8485C28.9443 98.9953 28.3941 99.0179 27.8608 98.9144L28.2226 99.3889C28.1732 94.2436 28.1171 89.0935 27.5948 83.9698C27.5316 83.3469 26.5452 83.3411 26.6093 83.9698Z" fill="#2EB196"/>
<path id="Vector_5" d="M34.8837 83.9689C35.4051 89.0926 35.4613 94.2427 35.5106 99.3879C35.5118 99.4951 35.5477 99.5991 35.6129 99.6845C35.6781 99.7698 35.769 99.8318 35.8722 99.8617C36.5781 100.004 37.3073 99.9817 38.0029 99.7958C38.1292 99.7613 38.2361 99.678 38.3009 99.5645C38.3654 99.451 38.3822 99.3167 38.3475 99.191C38.3125 99.0652 38.2291 98.9585 38.1154 98.894C38.0018 98.8297 37.8669 98.813 37.7408 98.8476C37.2178 98.9944 36.6678 99.0169 36.1345 98.9135L36.4961 99.3879C36.4469 94.2427 36.3906 89.0926 35.8694 83.9689C35.8053 83.3459 34.8197 83.3401 34.8837 83.9689Z" fill="#2EB196"/>
<path id="Vector_6" d="M60.5572 49.9436C60.9514 57.1849 65.3489 60.3441 71.0855 58.0016C77.0695 55.5615 77.6015 46.6624 76.9551 40.1847C76.5234 35.861 74.5022 30.7963 70.4133 30.3501C66.7758 29.9571 62.7639 32.9582 61.6177 36.8497C60.5402 41.1258 60.1819 45.5506 60.5572 49.9436Z" fill="#FDF2D6"/>
<path id="Vector_7" d="M60.0643 49.9443C60.0869 52.4121 60.8792 54.8116 62.3308 56.8102C62.9412 57.5594 63.7083 58.1666 64.5789 58.5889C65.4493 59.0114 66.4019 59.2387 67.3699 59.255C69.6525 59.2919 71.8692 58.4919 73.5992 57.0067C75.2153 55.449 76.3447 53.4582 76.8514 51.2747C77.4557 48.8787 77.7285 46.4111 77.6624 43.9411C77.709 41.4065 77.3875 38.8784 76.7084 36.4355C76.0186 34.207 74.8251 31.8719 72.7517 30.6378C71.663 30.0735 70.4441 29.8065 69.2185 29.8636C67.9928 29.9209 66.8042 30.3007 65.7734 30.964C64.4878 31.7095 63.3787 32.7223 62.5211 33.9336C61.6147 35.2933 61.0003 36.8253 60.7166 38.4334C59.9899 42.2246 59.7707 46.0954 60.0643 49.9443C60.0978 50.5731 61.0833 50.577 61.0497 49.9443C60.8254 46.7738 60.9221 43.5891 61.3386 40.4381C61.7563 37.6777 62.458 35.0383 64.561 33.068C66.2099 31.5223 68.6559 30.3803 70.9522 30.9455C73.1202 31.477 74.4921 33.4768 75.2982 35.4225C76.1185 37.5845 76.5642 39.8701 76.6159 42.1812C76.7668 44.4578 76.6709 46.7439 76.3291 49C76.0554 51.0722 75.3332 53.0601 74.2121 54.8262C73.0245 56.5297 71.2176 57.7042 69.1751 58.1005C68.1946 58.358 67.1646 58.3643 66.1811 58.119C65.1972 57.8735 64.2917 57.3847 63.5481 56.6972C61.774 54.9578 61.1916 52.3429 61.0497 49.9531C61.0134 49.3193 60.0268 49.3153 60.0643 49.9443Z" fill="#FDF2D6"/>
<path id="Vector_8" d="M47.9164 39.1413C47.522 31.9 43.1257 28.7408 37.3882 31.0835C31.4042 33.5243 30.8721 42.4234 31.5186 48.9011C31.95 53.2248 33.9715 58.2895 38.0603 58.7357C41.6978 59.1288 45.7097 56.1276 46.8559 52.2353C47.9339 47.9594 48.2924 43.5343 47.9164 39.1413Z" fill="#FDF2D6"/>
<path id="Vector_9" d="M48.4089 39.1418C48.386 36.674 47.594 34.2745 46.1421 32.2759C45.532 31.5267 44.7646 30.9195 43.8942 30.4972C43.0236 30.0747 42.071 29.8476 41.1033 29.8311C38.8183 29.7937 36.5995 30.5954 34.8688 32.0833C33.2555 33.6413 32.1289 35.6318 31.6255 37.8141C31.0209 40.2109 30.7476 42.6784 30.8136 45.1489C30.7672 47.6835 31.0885 50.2116 31.7676 52.6545C32.4574 54.8821 33.6509 57.2181 35.7243 58.4522C36.8132 59.016 38.0325 59.2828 39.2582 59.2253C40.4838 59.168 41.6726 58.7884 42.7037 58.125C43.9886 57.3793 45.0977 56.3668 45.9557 55.1564C46.8617 53.7963 47.4758 52.2638 47.7594 50.6557C48.4839 46.8622 48.7008 42.9893 48.4037 39.139C48.3704 38.509 47.3847 38.506 47.4183 39.139C47.6431 42.309 47.5464 45.4935 47.1297 48.6443C46.7117 51.4056 46.01 54.0489 43.908 56.0141C42.2583 57.5589 39.8131 58.7018 37.516 58.1369C35.3478 57.6042 33.977 55.6053 33.1698 53.6599C32.3498 51.4981 31.9041 49.2134 31.8521 46.903C31.7009 44.6262 31.7974 42.3401 32.1401 40.0842C32.4134 38.0118 33.1353 36.0234 34.2559 34.2571C35.4454 32.5568 37.2518 31.3851 39.2929 30.9896C40.2734 30.7325 41.3034 30.7264 42.2872 30.9719C43.2708 31.2174 44.1763 31.7065 44.92 32.3937C46.694 34.1322 47.2764 36.7471 47.4183 39.1378C47.4607 39.7698 48.4461 39.7747 48.4089 39.1418Z" fill="#FDF2D6"/>
<path id="Vector_10" d="M69.9956 37.1214C71.5661 42.0343 71.6346 47.3023 70.193 52.2545C70.1585 52.3789 70.1489 52.5088 70.1648 52.6371C70.1809 52.7652 70.2219 52.8889 70.2859 53.0012C70.3498 53.1135 70.4353 53.2121 70.5375 53.2914C70.6396 53.3708 70.7565 53.4292 70.8812 53.4636C71.006 53.4979 71.1365 53.5074 71.2649 53.4914C71.3935 53.4756 71.5176 53.4346 71.6301 53.3708C71.7427 53.3072 71.8417 53.2218 71.9211 53.12C72.0008 53.0181 72.0595 52.9016 72.094 52.7773C73.6337 47.4824 73.5649 41.8515 71.8969 36.5956C71.5134 35.3949 69.6103 35.9077 69.9968 37.1174L69.9956 37.1214Z" fill="black"/>
<path id="Vector_11" d="M41.8957 38.1991C43.4663 43.1121 43.5351 48.38 42.0928 53.332C42.0278 53.5819 42.0639 53.8473 42.1934 54.0708C42.3229 54.2942 42.5354 54.458 42.7849 54.5264C43.0344 54.5951 43.3012 54.5629 43.5271 54.4371C43.7531 54.3111 43.9204 54.1016 43.9928 53.8538C45.5325 48.5592 45.4638 42.9281 43.7958 37.6722C43.4123 36.4715 41.5083 36.9845 41.8947 38.1951L41.8957 38.1991Z" fill="black"/>
<path id="Vector_12" d="M49.7708 55.2833C49.5208 56.2313 49.6054 57.2364 50.011 58.1295C50.4164 59.0227 51.1176 59.7494 51.9973 60.1877C52.9508 60.6241 54.0299 60.7053 55.0384 60.4167C56.0507 60.0921 56.922 59.4336 57.509 58.5497C58.1434 57.6044 58.4758 56.49 58.463 55.3529C58.463 55.0923 58.3591 54.8425 58.1744 54.658C57.9896 54.4738 57.739 54.3703 57.4776 54.3703C57.2162 54.3703 56.9655 54.4738 56.7808 54.658C56.5958 54.8425 56.4921 55.0923 56.4921 55.3529C56.5075 55.7817 56.4406 56.2093 56.295 56.6128C56.2645 56.7109 56.231 56.8093 56.1965 56.8998C56.2505 56.7701 56.098 57.0963 56.08 57.1237C56.0318 57.2132 55.9815 57.3016 55.9253 57.3882C55.9037 57.4216 55.7056 57.6926 55.7755 57.6053C55.6302 57.7821 55.4699 57.9466 55.2965 58.0965C55.2565 58.1325 55.2152 58.168 55.1724 58.2028C55.2404 58.1497 55.2276 58.1575 55.1321 58.2253C55.0473 58.2763 54.9646 58.3304 54.8767 58.3766C54.5555 58.5302 54.2051 58.6139 53.8489 58.6223C53.5099 58.6299 53.1735 58.5626 52.8634 58.4258C52.7649 58.3726 52.6664 58.3107 52.5678 58.2548C52.3854 58.1566 52.6072 58.3088 52.4693 58.1821C52.3744 58.0993 52.2838 58.0118 52.1983 57.9197C52.1913 57.9128 52.011 57.6849 52.1135 57.8262C51.9835 57.6483 51.8726 57.4573 51.7822 57.2564C51.8563 57.4204 51.741 57.1306 51.7301 57.0942C51.6965 56.9889 51.6681 56.8821 51.6453 56.7738C51.6453 56.7534 51.6089 56.4654 51.6248 56.6629C51.6136 56.5378 51.6091 56.4121 51.6108 56.2865C51.6124 56.1921 51.6192 56.0981 51.6306 56.0044C51.6029 56.2088 51.6769 55.8404 51.6867 55.8079C51.7212 55.6835 51.7308 55.5536 51.7147 55.4255C51.6988 55.2974 51.6576 55.1738 51.5938 55.0615C51.5299 54.9492 51.4444 54.8508 51.3424 54.7715C51.2404 54.6921 51.1236 54.6336 50.9988 54.5993C50.8741 54.565 50.7437 54.5555 50.6153 54.5712C50.4869 54.5872 50.3628 54.6281 50.2503 54.6919C50.1377 54.7555 50.0389 54.8408 49.9593 54.9425C49.8798 55.0443 49.8211 55.1608 49.7866 55.2852L49.7708 55.2833Z" fill="#E34123"/>
<path id="Vector_13" d="M11.0113 46.9158L5.13772 52.0638C3.3569 53.6244 1.28241 55.1151 0.412213 57.4016C-0.511208 59.8269 0.632965 62.2325 2.15656 64.1074C3.32881 65.4005 4.59999 66.6005 5.95865 67.6972C6.32562 68.0227 6.67281 68.3698 6.99836 68.7369C7.06634 68.8153 7.13239 68.8961 7.19545 68.9756C7.09691 68.8587 7.04172 68.7545 7.15801 68.9413C7.23389 69.062 7.53447 69.4051 7.50884 69.5515C7.50392 69.5828 7.4103 69.1585 7.42802 69.3884C7.43599 69.4937 7.46164 69.597 7.50392 69.694C7.44282 69.6408 7.44282 69.2508 7.45957 69.5367C7.4369 69.1327 7.46942 69.3745 7.43 69.5555C7.36694 69.8404 7.43788 69.2763 7.41228 69.5555C7.33738 69.6719 7.35445 69.6552 7.4635 69.5053L7.34327 69.6299C7.62712 69.5643 7.40932 69.5221 7.33048 69.6378L7.1787 69.7214C7.38434 69.6369 7.37843 69.6283 7.16097 69.6958C6.6569 69.8343 6.22869 70.1668 5.97049 70.6202C5.71229 71.0736 5.64529 71.6107 5.78421 72.1132C5.92313 72.6158 6.2566 73.0429 6.71125 73.3002C7.16589 73.5578 7.70451 73.6246 8.20856 73.4861C8.88658 73.3049 9.51038 72.9624 10.0264 72.4879C10.5424 72.0135 10.9352 71.4214 11.171 70.7622C11.3514 70.229 11.4189 69.6645 11.3694 69.1042C11.3199 68.5439 11.1543 67.9998 10.8832 67.5065C9.92869 65.9638 8.66888 64.6316 7.18068 63.5905C6.4935 63.0142 5.8523 62.3854 5.26288 61.7098C5.17516 61.6114 5.08845 61.5074 5.0037 61.4051C4.8608 61.2323 4.97511 61.3756 5.0037 61.4121C4.84503 61.2037 4.69621 60.9865 4.55824 60.7645C4.42298 60.5478 4.30056 60.3232 4.19162 60.0923C4.32467 60.3791 4.19162 60.1012 4.17783 60.0411C4.13545 59.8937 4.08618 59.7464 4.05168 59.5991C4.03789 59.5411 3.99945 59.1696 4.01226 59.4093C4.02507 59.6492 4.02016 59.2668 4.02114 59.2128C4.02212 59.1587 4.06549 58.7805 4.02114 59.0074C3.97678 59.2343 4.06845 58.8531 4.08322 58.803C4.09802 58.7529 4.234 58.3933 4.14531 58.5956C4.06549 58.7784 4.19952 58.4975 4.20642 58.4896C4.26948 58.3805 4.33059 58.2703 4.40351 58.1643C4.41534 58.1476 4.76717 57.6956 4.5533 57.9492C5.31133 57.1218 6.13063 56.3524 7.00426 55.6476L13.7964 49.6956C14.1631 49.3255 14.3687 48.826 14.3687 48.3056C14.3687 47.7854 14.1631 47.2859 13.7964 46.9158C13.4207 46.5585 12.9215 46.3594 12.4024 46.3594C11.8833 46.3594 11.3841 46.5585 11.0084 46.9158H11.0113Z" fill="#2EB196"/>
<path id="Vector_14" d="M53.0352 67.538C59.7915 71.8257 67.7324 73.8779 75.7267 73.4025C83.4553 72.9905 90.8581 70.1633 96.8854 65.322C100.009 62.819 102.611 59.7308 104.545 56.2313C104.809 55.7812 104.882 55.245 104.75 54.7408C104.617 54.2364 104.289 53.8053 103.838 53.5422C103.386 53.2791 102.849 53.2058 102.343 53.3378C101.837 53.4701 101.405 53.7972 101.141 54.2473C100.747 54.9726 100.32 55.6793 99.8597 56.368C99.6449 56.6893 99.4231 57.0046 99.1944 57.3172C99.0893 57.4608 98.9824 57.6039 98.8731 57.7466C98.7373 57.9246 98.885 57.7308 98.9066 57.7035C98.8142 57.8199 98.7205 57.9366 98.6259 58.0531C97.5722 59.3455 96.4125 60.5482 95.1589 61.6487C94.8593 61.9109 94.5546 62.1689 94.2452 62.4232C94.1024 62.5401 93.9575 62.655 93.8126 62.771C93.5652 62.9675 94.0234 62.6118 93.7711 62.8044C93.6726 62.8791 93.574 62.9538 93.4755 63.0276C92.8001 63.5288 92.107 64.0037 91.3963 64.4524C89.9283 65.3791 88.3917 66.1928 86.7998 66.8865L86.5375 67.0005C86.8264 66.8775 86.5277 67.0004 86.4785 67.023C86.301 67.0937 86.1237 67.1654 85.9453 67.2353C85.498 67.4088 85.0467 67.5726 84.5922 67.7267C83.7703 68.0063 82.9386 68.2552 82.0969 68.4735C81.2303 68.6988 80.3562 68.8891 79.4744 69.0443C79.039 69.1223 78.6017 69.1914 78.1628 69.2517C78.0307 69.2599 77.8991 69.2745 77.7686 69.296C77.4979 69.3267 77.2265 69.3543 76.9546 69.3784C75.0811 69.5452 73.1976 69.5696 71.3203 69.4513C70.877 69.4237 70.4341 69.3884 69.9919 69.345C69.7879 69.3255 69.5849 69.3037 69.3809 69.2803L69.0754 69.2438C68.4259 69.1673 69.2616 69.2733 68.8891 69.2202C67.9791 69.0893 67.0745 68.9271 66.175 68.7339C64.1286 68.2886 62.1239 67.6698 60.1831 66.8844C60.1831 66.8844 59.8807 66.7587 60.0482 66.8295C60.1871 66.8884 59.8511 66.745 59.8234 66.7311C59.579 66.6243 59.336 66.5144 59.0942 66.4009C58.6416 66.1907 58.1947 65.9703 57.7539 65.7397C56.8177 65.2483 55.9091 64.7148 55.0259 64.139C54.5737 63.8796 54.037 63.8081 53.5324 63.9401C53.0275 64.0721 52.5951 64.397 52.3286 64.8445C52.0765 65.2972 52.0092 65.8295 52.1411 66.3304C52.2729 66.8313 52.5937 67.2622 53.0364 67.5329L53.0352 67.538Z" fill="#2EB196"/>
<path id="Vector_15" d="M98.4859 53.962C98.3696 54.2021 98.3165 54.4675 98.3314 54.7336C98.3466 54.9998 98.4291 55.2578 98.5716 55.4833C98.8805 55.8682 99.3027 56.1469 99.7789 56.2803C99.9937 56.3538 100.213 56.4118 100.434 56.4668C100.56 56.5016 100.695 56.4849 100.809 56.4204C100.922 56.3559 101.006 56.2492 101.041 56.1234C101.076 55.9977 101.059 55.8633 100.994 55.7499C100.929 55.6364 100.822 55.5534 100.696 55.5186C100.517 55.4745 100.338 55.4283 100.16 55.3722C100.071 55.3436 99.9808 55.3123 99.893 55.274C99.8725 55.2661 99.7945 55.2346 99.8842 55.274C99.9738 55.3132 99.8842 55.274 99.8665 55.265C99.8231 55.2455 99.7807 55.2248 99.7383 55.2032C99.6624 55.1643 99.5892 55.12 99.5196 55.0705C99.5098 55.0622 99.4993 55.0545 99.4881 55.0478C99.4802 55.0478 99.5867 55.1255 99.551 55.0961C99.5373 55.0833 99.5217 55.0724 99.5077 55.0596C99.4748 55.0313 99.4436 55.0012 99.414 54.9694L99.3728 54.9211C99.3728 54.9211 99.4564 55.039 99.4063 54.9624C99.3826 54.9271 99.3618 54.8916 99.3411 54.8543C99.2968 54.7738 99.3639 54.9044 99.3609 54.9053L99.3392 54.8446C99.3255 54.8012 99.3185 54.758 99.3087 54.7149C99.299 54.6715 99.3176 54.8002 99.3194 54.7963C99.3215 54.7831 99.3215 54.7694 99.3194 54.7561C99.3194 54.7285 99.3194 54.7009 99.3194 54.6736C99.3194 54.6459 99.3194 54.6225 99.3194 54.5968C99.3194 54.4986 99.2959 54.7176 99.3194 54.6146C99.3462 54.4798 99.3865 54.348 99.4397 54.2216C99.4574 54.1582 99.462 54.0921 99.4536 54.0269C99.4452 53.9617 99.4238 53.8988 99.3905 53.8422C99.3243 53.7323 99.2186 53.652 99.0949 53.6172C99.0315 53.6 98.9653 53.5956 98.9001 53.6042C98.8351 53.6125 98.7722 53.6336 98.7154 53.6664C98.6101 53.7376 98.5304 53.8411 98.4887 53.961L98.4859 53.962Z" fill="#2EB196"/>
<path id="Vector_16" d="M102.151 55.0529L103.24 51.0241C103.275 50.8984 103.258 50.7638 103.193 50.6506C103.129 50.5371 103.022 50.4538 102.895 50.4193C102.769 50.3845 102.635 50.4012 102.521 50.4657C102.407 50.5302 102.324 50.6369 102.289 50.7627L101.205 54.7917C101.17 54.9172 101.187 55.0515 101.251 55.1647C101.316 55.2782 101.423 55.3613 101.549 55.3958C101.675 55.4306 101.809 55.4139 101.923 55.3497C102.037 55.2854 102.12 55.1787 102.155 55.0529H102.151Z" fill="#2EB196"/>
<path id="Vector_17" d="M103.206 55.3798C104.137 53.9424 104.649 52.2754 104.685 50.5647C104.685 50.4343 104.633 50.3095 104.54 50.2174C104.448 50.1253 104.323 50.0733 104.192 50.0733C104.061 50.0733 103.936 50.1253 103.844 50.2174C103.751 50.3095 103.699 50.4343 103.699 50.5647C103.663 52.103 103.196 53.6007 102.352 54.8884C102.005 55.4202 102.859 55.9134 103.203 55.3847L103.206 55.3798Z" fill="#2EB196"/>
<path id="Vector_18" d="M104.249 56.4835C105.15 55.2986 105.732 53.903 105.938 52.4302C105.968 52.3046 105.949 52.1724 105.885 52.0601C105.822 51.9478 105.717 51.864 105.594 51.8258C105.531 51.8086 105.466 51.8039 105.402 51.8118C105.337 51.82 105.275 51.8404 105.219 51.8724C105.163 51.9044 105.113 51.9471 105.073 51.9981C105.034 52.0492 105.005 52.1074 104.988 52.1696C104.798 53.5578 104.25 54.8731 103.399 55.9872C103.366 56.0432 103.345 56.1046 103.336 56.1687C103.327 56.2327 103.331 56.2979 103.347 56.3603C103.363 56.423 103.392 56.4817 103.431 56.5332C103.47 56.5847 103.519 56.6278 103.575 56.6606C103.689 56.7232 103.822 56.7397 103.948 56.7067C104.073 56.6738 104.181 56.594 104.249 56.4835Z" fill="#2EB196"/>
<path id="Vector_19" d="M31.1761 7.03305C31.9719 7.19396 32.7994 7.04561 33.4892 6.61837C35.5104 5.50206 36.84 3.9121 35.5125 1.70502C35.2486 1.33476 34.89 1.04182 34.4739 0.856722C34.0579 0.671623 33.5999 0.601128 33.1472 0.652583C32.3789 0.714054 31.6464 1.0014 31.0419 1.47824C30.4376 1.95508 29.9886 2.59999 29.7522 3.33134C29.153 5.30257 29.8882 6.70679 31.1761 7.03305Z" fill="black"/>
<path id="Vector_20" d="M31.0452 7.50665C32.6722 7.88498 34.4225 6.87677 35.5147 5.72705C36.0055 5.23957 36.3429 4.61964 36.4852 3.9435C36.5959 3.21807 36.4731 2.47633 36.1344 1.82487C35.7525 1.11932 35.1205 0.580902 34.3622 0.314572C33.6036 0.0482452 32.7729 0.0730965 32.0318 0.384282C31.2865 0.648117 30.6249 1.10488 30.1152 1.70772C29.6052 2.31055 29.2653 3.03776 29.1304 3.81477C28.8623 5.35561 29.3886 7.05758 31.0452 7.50665C31.1712 7.54131 31.3059 7.52466 31.4196 7.46034C31.5333 7.39602 31.6167 7.28932 31.6514 7.1637C31.6861 7.03809 31.6693 6.90384 31.605 6.7905C31.5405 6.67718 31.4333 6.59403 31.3075 6.55937C30.8754 6.41268 30.5103 6.11684 30.278 5.72528C30.0455 5.3337 29.9612 4.87217 30.0402 4.42403C30.0712 3.81015 30.2636 3.21524 30.5981 2.69897C30.9327 2.18273 31.3974 1.76333 31.9461 1.4829C32.8882 1.0014 34.4008 0.924748 35.0583 1.91626C35.3767 2.34247 35.5426 2.8631 35.5289 3.39452C35.5151 3.92593 35.3227 4.43732 34.9823 4.84658C34.5576 5.33004 34.0526 5.73693 33.4892 6.04937C32.8556 6.49533 32.0728 6.67821 31.3063 6.55937C30.6904 6.41196 30.4274 7.36319 31.0452 7.50665Z" fill="black"/>
<path id="Vector_21" d="M44.9078 19.2305C42.8607 19.66 40.8139 20.1051 38.8302 20.6928C38.0919 20.9109 31.833 23.0109 31.8193 22.8192C31.4892 18.9239 29.8875 6.32615 36.1445 6.07065C40.1103 5.90949 43.7262 10.0062 45.8756 12.7528C47.0402 14.5423 48.0722 16.4144 48.9631 18.354C47.6247 18.6655 46.2658 18.9446 44.9078 19.2305Z" fill="#E34123"/>
<path id="Vector_22" d="M44.6453 18.2828C41.9268 18.8386 39.2403 19.539 36.5968 20.3808C35.5815 20.711 34.5655 21.0392 33.5417 21.3536C33.1218 21.4834 32.702 21.6121 32.2792 21.729C32.1453 21.7654 32.0092 21.7968 31.8752 21.8342C31.8279 21.8469 31.7767 21.8499 31.7292 21.8656C31.9314 21.8462 32.135 21.885 32.3155 21.9776L32.6694 22.3294V22.3235L32.8045 22.8149C32.4782 18.9992 31.9805 14.9879 32.7689 11.2351C32.9252 10.3462 33.2248 9.48841 33.656 8.6949C33.9764 8.05001 34.5145 7.53825 35.1757 7.24941C35.0229 7.31623 35.2999 7.20713 35.3441 7.19437C35.4427 7.16588 35.5333 7.13836 35.63 7.11674C35.7961 7.06852 35.9685 7.04567 36.1413 7.04894C36.8463 7.02725 37.5489 7.14068 38.211 7.38305C39.5918 7.9292 40.8466 8.75001 41.8987 9.79548C43.0938 10.8991 44.1824 12.1118 45.1509 13.4176C46.2584 15.1593 47.2462 16.9738 48.1075 18.8488L48.6987 17.4053C47.3505 17.7138 45.9965 17.9949 44.6435 18.2779C43.4027 18.5383 43.9278 20.4339 45.1676 20.1734C46.5207 19.8895 47.875 19.6094 49.2229 19.3008C49.3676 19.2591 49.5006 19.1853 49.6124 19.085C49.7242 18.9847 49.8118 18.8605 49.8689 18.7217C49.9258 18.5828 49.9502 18.4329 49.9409 18.2833C49.9314 18.1336 49.8883 17.9879 49.8144 17.8573C49.1472 16.6378 48.5913 15.3633 47.9271 14.1428C47.3133 13.0504 46.5941 12.0203 45.7796 11.0671C44.3432 9.22166 42.6015 7.63414 40.6294 6.37286C39.7817 5.79961 38.823 5.40927 37.8152 5.22685C36.8072 5.04444 35.7723 5.07395 34.7764 5.31354C34.1075 5.5537 33.4939 5.92546 32.9721 6.40674C32.4502 6.88801 32.0304 7.46899 31.7383 8.11514C30.3172 11.0287 30.316 14.5605 30.4472 17.7286C30.5054 19.1298 30.6235 20.5272 30.7526 21.9226C30.8166 22.6105 30.7477 23.5538 31.5833 23.775C32.0858 23.8248 32.5928 23.7469 33.0569 23.548C34.6879 23.0792 36.2981 22.5387 37.9114 22.014C40.2961 21.2719 42.7189 20.6575 45.1695 20.1734C46.4094 19.917 45.8852 18.0224 44.6453 18.2828Z" fill="#E34123"/>
<path id="Vector_23" d="M32.4334 21.7984L34.0379 20.9337C34.1497 20.8668 34.2308 20.7588 34.2638 20.633C34.2967 20.5071 34.279 20.3735 34.2142 20.2605C34.1462 20.1504 34.0381 20.0707 33.9125 20.0379C33.787 20.0052 33.6537 20.0219 33.5402 20.0846L31.9358 20.9504C31.823 21.0162 31.741 21.124 31.708 21.25C31.6749 21.3761 31.6933 21.5101 31.7594 21.6225C31.8272 21.733 31.9351 21.813 32.0609 21.8459C32.1865 21.8786 32.32 21.8616 32.4334 21.7984Z" fill="black"/>
<path id="Vector_24" d="M35.6572 20.1212L37.0115 19.6987C37.1347 19.6625 37.24 19.5819 37.3071 19.4727C37.3567 19.3884 37.3798 19.2912 37.3737 19.1937C37.3677 19.0961 37.3325 19.0026 37.2729 18.925C37.2132 18.8475 37.1317 18.7894 37.0387 18.7583C36.9458 18.7272 36.8458 18.7245 36.7513 18.7504L35.3972 19.1739C35.2738 19.2101 35.1685 19.2906 35.1016 19.3999C35.0357 19.5146 35.0175 19.6505 35.0513 19.7783C35.0876 19.9029 35.1713 20.0085 35.2845 20.0725C35.3977 20.1366 35.5314 20.154 35.6572 20.1212Z" fill="black"/>
<path id="Vector_25" d="M39.2473 19.0417L40.8075 18.6094C40.8711 18.5934 40.931 18.5649 40.9834 18.5256C41.0358 18.4863 41.0798 18.437 41.1129 18.3804C41.146 18.3239 41.1674 18.2614 41.1758 18.1965C41.1844 18.1316 41.1798 18.0657 41.1623 18.0026C41.1451 17.9396 41.1152 17.8806 41.0745 17.8291C41.0339 17.7777 40.9836 17.7349 40.9261 17.7032C40.8688 17.6714 40.8056 17.6515 40.7404 17.6444C40.6752 17.6374 40.6092 17.6434 40.5463 17.6621L38.9852 18.0944C38.9228 18.1116 38.8645 18.1409 38.8135 18.1805C38.7625 18.2202 38.7196 18.2695 38.6877 18.3256C38.6558 18.3817 38.6353 18.4435 38.6274 18.5076C38.6192 18.5716 38.6241 18.6366 38.6414 18.6988C38.6586 18.761 38.6879 18.8192 38.7276 18.8701C38.7674 18.921 38.8168 18.9636 38.8732 18.9954C38.9293 19.0273 38.9915 19.0477 39.0556 19.0557C39.1199 19.0636 39.1851 19.0589 39.2473 19.0417Z" fill="black"/>
<path id="Vector_26" d="M43.3235 18.0515L45.0975 17.7184C45.16 17.7012 45.2182 17.672 45.2692 17.6323C45.3203 17.5926 45.3631 17.5433 45.395 17.4872C45.427 17.4311 45.4475 17.3693 45.4554 17.3052C45.4635 17.2412 45.4586 17.1762 45.4414 17.114C45.4041 16.9901 45.3203 16.8852 45.2075 16.8212C45.0945 16.7572 44.9613 16.7388 44.8355 16.7701L43.0614 17.1042C42.999 17.1214 42.9407 17.1506 42.8897 17.1903C42.8387 17.2299 42.7958 17.2792 42.7639 17.3353C42.732 17.3914 42.7115 17.4533 42.7036 17.5173C42.6956 17.5814 42.7003 17.6463 42.7175 17.7085C42.7551 17.8323 42.8389 17.9369 42.9519 18.0008C43.0647 18.0646 43.1977 18.0828 43.3235 18.0515Z" fill="black"/>
<path id="Vector_27" d="M46.7441 17.4813L47.7741 17.4233C47.9041 17.42 48.028 17.3685 48.1219 17.2789C48.2144 17.1868 48.2661 17.0618 48.2661 16.9315C48.2661 16.8012 48.2144 16.6763 48.1219 16.5841C48.0296 16.4923 47.9045 16.4407 47.7741 16.4407L46.7441 16.4987C46.6139 16.501 46.4892 16.5522 46.3954 16.6421C46.3262 16.7108 46.2791 16.7985 46.26 16.8939C46.2409 16.9893 46.2507 17.0882 46.2882 17.1781C46.3255 17.268 46.3888 17.3448 46.4699 17.3988C46.5512 17.4528 46.6465 17.4815 46.7441 17.4813Z" fill="black"/>
</g>
<defs>
<clipPath id="clip0_1_10459">
<rect width="106" height="100" fill="white"/>
</clipPath>
</defs>
</svg>
