<svg width="35" height="35" viewBox="0 0 35 35" fill="none" xmlns="http://www.w3.org/2000/svg">
<g id="tabler:swimming">
<path id="Vector" d="M8.75 16.0417L14.5833 13.125L19.6875 17.5L17.5 20.4167M4.375 24.4271C4.82897 24.6528 5.32655 24.7772 5.83333 24.7917C6.40135 24.8036 6.96372 24.677 7.47188 24.4229C7.98004 24.1689 8.41871 23.7949 8.75 23.3333C9.08129 22.8718 9.51996 22.4978 10.0281 22.2437C10.5363 21.9897 11.0987 21.8631 11.6667 21.875C12.2347 21.8631 12.7971 21.9897 13.3052 22.2437C13.8134 22.4978 14.252 22.8718 14.5833 23.3333C14.9146 23.7949 15.3533 24.1689 15.8615 24.4229C16.3696 24.677 16.932 24.8036 17.5 24.7917C18.068 24.8036 18.6304 24.677 19.1385 24.4229C19.6467 24.1689 20.0854 23.7949 20.4167 23.3333C20.748 22.8718 21.1866 22.4978 21.6948 22.2437C22.2029 21.9897 22.7653 21.8631 23.3333 21.875C23.9013 21.8631 24.4637 21.9897 24.9719 22.2437C25.48 22.4978 25.9187 22.8718 26.25 23.3333C26.5813 23.7949 27.02 24.1689 27.5281 24.4229C28.0363 24.677 28.5987 24.8036 29.1667 24.7917C29.6734 24.7772 30.171 24.6528 30.625 24.4271M21.875 13.125C21.875 13.5118 22.0286 13.8827 22.3021 14.1562C22.5756 14.4297 22.9466 14.5833 23.3333 14.5833C23.7201 14.5833 24.091 14.4297 24.3645 14.1562C24.638 13.8827 24.7917 13.5118 24.7917 13.125C24.7917 12.7382 24.638 12.3673 24.3645 12.0938C24.091 11.8203 23.7201 11.6667 23.3333 11.6667C22.9466 11.6667 22.5756 11.8203 22.3021 12.0938C22.0286 12.3673 21.875 12.7382 21.875 13.125Z" stroke="black" stroke-width="2" stroke-linecap="round" stroke-linejoin="round"/>
</g>
</svg>
